<svg width="60" height="60" viewBox="0 0 60 60" fill="none" xmlns="http://www.w3.org/2000/svg">
<circle cx="30" cy="30" r="30" fill="white"/>
<path fill-rule="evenodd" clip-rule="evenodd" d="M38.9194 16.1652L30.9025 19.5842C30.201 19.8834 29.7444 20.5701 29.739 21.3318C29.7337 20.5701 29.2771 19.8834 28.5756 19.5842L20.9446 16.3298C19.9712 15.9147 18.8901 16.6289 18.8901 17.6872L29.739 22.314L38.9194 18.3989V20.6325L30.9025 24.0515C30.201 24.3506 29.7444 25.0373 29.739 25.799C29.7337 25.0373 29.2771 24.3506 28.5756 24.0515L20.9446 20.7971C20.0787 20.4278 19.1276 20.9522 18.928 21.8174H18.8898V26.4908H18.8956C18.892 26.5338 18.8901 26.5775 18.8901 26.6217L29.739 31.2485L38.9193 27.3334V27.585C38.9193 28.787 38.2018 29.873 37.0961 30.3446L30.9025 32.986C30.201 33.2851 29.7444 33.9718 29.739 34.7335C29.7337 33.9718 29.2771 33.2851 28.5756 32.986L20.9446 29.7316C20.0529 29.3512 19.0707 29.9188 18.9122 30.8305H18.8901V35.5039C18.8889 35.5356 18.909 35.5643 18.9382 35.5768L29.739 40.183L38.9189 36.268V38.474C38.5132 38.6609 38.4334 38.7018 38.3935 38.7223L38.3779 38.7302C38.3486 38.7449 38.3183 38.7578 38.109 38.8471L38.1084 38.8474L38.1079 38.8476L38.1076 38.8477L30.9025 41.9204C30.201 42.2196 29.7444 42.9063 29.739 43.668C29.7337 42.9063 29.2771 42.2196 28.5756 41.9205L20.9446 38.6661C19.9712 38.2509 18.8901 38.9652 18.8901 40.0235L29.739 44.6502L39.4246 40.5197C40.1044 40.2297 40.5544 39.5756 40.5862 38.842H40.588V34.5025H40.5764C40.5841 34.4329 40.588 34.3624 40.588 34.2914V33.3226L30.9025 37.4532C30.201 37.7524 29.7444 38.4391 29.739 39.2008C29.7337 38.4391 29.2771 37.7524 28.5756 37.4532L20.5591 34.0921V31.8008L29.739 35.7157L39.4246 31.5852C40.1287 31.2849 40.5864 30.5942 40.5883 29.829L40.588 24.3881L30.9025 28.5187C30.201 28.8179 29.7444 29.5046 29.739 30.2663C29.7337 29.5046 29.2771 28.8179 28.5756 28.5187L20.9446 25.2643C20.817 25.2099 20.6875 25.1749 20.5588 25.1575V22.8662L29.739 26.7812L39.4246 22.6507C40.1302 22.3498 40.588 21.6567 40.588 20.8896V20.8163H40.5885V16.1429H40.588V15.4536L38.9718 16.1429H38.9194V16.1652Z" fill="#3AE3D2"/>
</svg>
